<svg width="59" height="59" viewBox="0 0 59 59" fill="none" xmlns="http://www.w3.org/2000/svg">
<path d="M12.4299 47.5522H1.43284V13.1641H28.6567V27.5498C28.6567 27.7399 28.7322 27.9221 28.8665 28.0564C29.0009 28.1908 29.1831 28.2663 29.3731 28.2663C29.5631 28.2663 29.7454 28.1908 29.8797 28.0564C30.0141 27.9221 30.0895 27.7399 30.0895 27.5498V12.4477C30.0895 12.2577 30.0141 12.0755 29.8797 11.9411C29.7454 11.8068 29.5631 11.7313 29.3731 11.7313H27.2239V6.71636C27.2239 6.60908 27.1998 6.50317 27.1534 6.40645C27.107 6.30973 27.0395 6.22467 26.9558 6.15754C26.8721 6.09042 26.7744 6.04295 26.67 6.01864C26.5655 5.99432 26.4569 5.99379 26.3521 6.01708L0.561098 11.7484C0.405883 11.7911 0.268091 11.8817 0.167346 12.0072C0.0666003 12.1328 0.00803861 12.2869 0 12.4477V48.2686C0 48.4586 0.0754795 48.6408 0.209834 48.7752C0.344188 48.9095 0.526412 48.985 0.716418 48.985H12.4299C12.6199 48.985 12.8022 48.9095 12.9365 48.7752C13.0709 48.6408 13.1463 48.4586 13.1463 48.2686C13.1463 48.0786 13.0709 47.8964 12.9365 47.762C12.8022 47.6277 12.6199 47.5522 12.4299 47.5522ZM25.791 11.7313H7.24245L25.791 7.60943V11.7313Z" fill="#950504"/>
<path d="M26.5075 28.6964C26.6975 28.6964 26.8797 28.6209 27.0141 28.4866C27.1484 28.3522 27.2239 28.17 27.2239 27.98V18.8957C27.2239 18.7057 27.1485 18.5234 27.0141 18.3891C26.8797 18.2547 26.6975 18.1793 26.5075 18.1793C25.7478 18.1784 25.0194 17.8762 24.4821 17.339C23.9449 16.8017 23.6427 16.0733 23.6418 15.3136C23.6418 15.1236 23.5664 14.9414 23.432 14.807C23.2977 14.6726 23.1154 14.5972 22.9254 14.5972H7.16423C6.97422 14.5972 6.792 14.6726 6.65765 14.807C6.52329 14.9414 6.44781 15.1236 6.44781 15.3136C6.44694 16.0733 6.14475 16.8017 5.60752 17.339C5.07029 17.8762 4.3419 18.1784 3.58214 18.1793C3.39213 18.1793 3.20991 18.2547 3.07556 18.3891C2.9412 18.5234 2.86572 18.7057 2.86572 18.8957V41.821C2.86572 42.0111 2.9412 42.1933 3.07556 42.3276C3.20991 42.462 3.39213 42.5375 3.58214 42.5375C4.3419 42.5383 5.07029 42.8405 5.60752 43.3778C6.14475 43.915 6.44694 44.6434 6.44781 45.4031C6.44781 45.5931 6.52329 45.7754 6.65765 45.9097C6.792 46.0441 6.97422 46.1196 7.16423 46.1196H14.3284C14.5184 46.1196 14.7006 46.0441 14.835 45.9097C14.9693 45.7754 15.0448 45.5931 15.0448 45.4031C15.0448 45.2131 14.9693 45.0309 14.835 44.8966C14.7006 44.7622 14.5184 44.6867 14.3284 44.6867H7.82083C7.67065 43.8072 7.25115 42.996 6.62023 42.3651C5.98931 41.7341 5.17809 41.3146 4.29856 41.1645V19.5523C5.17809 19.4021 5.98931 18.9826 6.62023 18.3517C7.25115 17.7208 7.67065 16.9095 7.82083 16.03H22.2688C22.419 16.9095 22.8385 17.7208 23.4694 18.3517C24.1003 18.9826 24.9116 19.4021 25.7911 19.5523V27.98C25.7911 28.17 25.8666 28.3522 26.0009 28.4866C26.1353 28.6209 26.3175 28.6964 26.5075 28.6964Z" fill="#950504"/>
<path d="M16.4776 17.4624C16.2876 17.4624 16.1054 17.5379 15.9711 17.6722C15.8367 17.8066 15.7612 17.9888 15.7612 18.1788V20.3281C15.7631 20.9617 15.9752 21.5767 16.3641 22.0769C16.753 22.577 17.2969 22.9341 17.9105 23.092V26.7758C17.9105 26.9658 17.986 27.1481 18.1203 27.2824C18.2547 27.4168 18.4369 27.4923 18.6269 27.4923C18.8169 27.4923 18.9991 27.4168 19.1335 27.2824C19.2678 27.1481 19.3433 26.9658 19.3433 26.7758V23.092C19.9569 22.9341 20.5008 22.577 20.8897 22.0769C21.2786 21.5767 21.4907 20.9617 21.4926 20.3281V18.1788C21.4926 17.9888 21.4171 17.8066 21.2827 17.6722C21.1484 17.5379 20.9662 17.4624 20.7762 17.4624C20.5861 17.4624 20.4039 17.5379 20.2696 17.6722C20.1352 17.8066 20.0597 17.9888 20.0597 18.1788V20.3281C20.059 20.5785 19.9924 20.8242 19.8666 21.0407C19.7409 21.2572 19.5604 21.4369 19.3433 21.5616V18.1788C19.3433 17.9888 19.2678 17.8066 19.1335 17.6722C18.9991 17.5379 18.8169 17.4624 18.6269 17.4624C18.4369 17.4624 18.2547 17.5379 18.1203 17.6722C17.986 17.8066 17.9105 17.9888 17.9105 18.1788V21.5616C17.6934 21.4369 17.5129 21.2572 17.3872 21.0407C17.2615 20.8242 17.1948 20.5785 17.1941 20.3281V18.1788C17.1941 17.9888 17.1186 17.8066 16.9842 17.6722C16.8499 17.5379 16.6677 17.4624 16.4776 17.4624Z" fill="#950504"/>
<path d="M11.4628 27.4923C11.6528 27.4923 11.8351 27.4168 11.9694 27.2824C12.1038 27.1481 12.1793 26.9658 12.1793 26.7758V23.8084C12.7928 23.6505 13.3367 23.2935 13.7256 22.7933C14.1146 22.2931 14.3266 21.6781 14.3285 21.0445C14.3285 19.6183 13.1857 17.4624 11.4628 17.4624C9.74001 17.4624 8.59717 19.6183 8.59717 21.0445C8.59908 21.6781 8.81111 22.2931 9.20005 22.7933C9.58898 23.2935 10.1328 23.6505 10.7464 23.8084V26.7758C10.7464 26.9658 10.8219 27.1481 10.9563 27.2824C11.0906 27.4168 11.2728 27.4923 11.4628 27.4923ZM10.03 21.0445C10.03 20.1567 10.7709 18.8952 11.4628 18.8952C12.1548 18.8952 12.8957 20.1567 12.8957 21.0445C12.8957 21.4245 12.7447 21.789 12.476 22.0577C12.2073 22.3264 11.8429 22.4773 11.4628 22.4773C11.0828 22.4773 10.7184 22.3264 10.4497 22.0577C10.181 21.789 10.03 21.4245 10.03 21.0445Z" fill="#950504"/>
<path d="M9.31332 29.6416H7.88048C7.69047 29.6416 7.50825 29.7171 7.3739 29.8514C7.23954 29.9858 7.16406 30.168 7.16406 30.358C7.16406 30.548 7.23954 30.7302 7.3739 30.8646C7.50825 30.999 7.69047 31.0744 7.88048 31.0744H9.31332C9.50332 31.0744 9.68555 30.999 9.8199 30.8646C9.95425 30.7302 10.0297 30.548 10.0297 30.358C10.0297 30.168 9.95425 29.9858 9.8199 29.8514C9.68555 29.7171 9.50332 29.6416 9.31332 29.6416Z" fill="#950504"/>
<path d="M22.9256 30.358C22.9256 30.168 22.8501 29.9858 22.7157 29.8514C22.5814 29.7171 22.3992 29.6416 22.2092 29.6416H12.1793C11.9893 29.6416 11.8071 29.7171 11.6727 29.8514C11.5384 29.9858 11.4629 30.168 11.4629 30.358C11.4629 30.548 11.5384 30.7302 11.6727 30.8646C11.8071 30.999 11.9893 31.0744 12.1793 31.0744H22.2092C22.3992 31.0744 22.5814 30.999 22.7157 30.8646C22.8501 30.7302 22.9256 30.548 22.9256 30.358Z" fill="#950504"/>
<path d="M9.31332 33.2236H7.88048C7.69047 33.2236 7.50825 33.2991 7.3739 33.4335C7.23954 33.5678 7.16406 33.75 7.16406 33.9401C7.16406 34.1301 7.23954 34.3123 7.3739 34.4466C7.50825 34.581 7.69047 34.6565 7.88048 34.6565H9.31332C9.50332 34.6565 9.68555 34.581 9.8199 34.4466C9.95425 34.3123 10.0297 34.1301 10.0297 33.9401C10.0297 33.75 9.95425 33.5678 9.8199 33.4335C9.68555 33.2991 9.50332 33.2236 9.31332 33.2236Z" fill="#950504"/>
<path d="M20.0599 33.9401C20.0599 33.75 19.9844 33.5678 19.8501 33.4335C19.7157 33.2991 19.5335 33.2236 19.3435 33.2236H12.1793C11.9893 33.2236 11.8071 33.2991 11.6727 33.4335C11.5384 33.5678 11.4629 33.75 11.4629 33.9401C11.4629 34.1301 11.5384 34.3123 11.6727 34.4466C11.8071 34.581 11.9893 34.6565 12.1793 34.6565H19.3435C19.5335 34.6565 19.7157 34.581 19.8501 34.4466C19.9844 34.3123 20.0599 34.1301 20.0599 33.9401Z" fill="#950504"/>
<path d="M9.31332 36.8062H7.88048C7.69047 36.8062 7.50825 36.8816 7.3739 37.016C7.23954 37.1503 7.16406 37.3326 7.16406 37.5226C7.16406 37.7126 7.23954 37.8948 7.3739 38.0292C7.50825 38.1635 7.69047 38.239 7.88048 38.239H9.31332C9.50332 38.239 9.68555 38.1635 9.8199 38.0292C9.95425 37.8948 10.0297 37.7126 10.0297 37.5226C10.0297 37.3326 9.95425 37.1503 9.8199 37.016C9.68555 36.8816 9.50332 36.8062 9.31332 36.8062Z" fill="#950504"/>
<path d="M17.1942 37.5226C17.1942 37.3326 17.1188 37.1503 16.9844 37.016C16.85 36.8816 16.6678 36.8062 16.4778 36.8062H12.1793C11.9893 36.8062 11.8071 36.8816 11.6727 37.016C11.5384 37.1503 11.4629 37.3326 11.4629 37.5226C11.4629 37.7126 11.5384 37.8948 11.6727 38.0292C11.8071 38.1635 11.9893 38.239 12.1793 38.239H16.4778C16.6678 38.239 16.85 38.1635 16.9844 38.0292C17.1188 37.8948 17.1942 37.7126 17.1942 37.5226Z" fill="#950504"/>
<path d="M9.31332 40.3882H7.88048C7.69047 40.3882 7.50825 40.4637 7.3739 40.598C7.23954 40.7324 7.16406 40.9146 7.16406 41.1046C7.16406 41.2946 7.23954 41.4768 7.3739 41.6112C7.50825 41.7455 7.69047 41.821 7.88048 41.821H9.31332C9.50332 41.821 9.68555 41.7455 9.8199 41.6112C9.95425 41.4768 10.0297 41.2946 10.0297 41.1046C10.0297 40.9146 9.95425 40.7324 9.8199 40.598C9.68555 40.4637 9.50332 40.3882 9.31332 40.3882Z" fill="#950504"/>
<path d="M12.1793 40.3882C11.9893 40.3882 11.8071 40.4637 11.6727 40.598C11.5384 40.7324 11.4629 40.9146 11.4629 41.1046C11.4629 41.2946 11.5384 41.4768 11.6727 41.6112C11.8071 41.7455 11.9893 41.821 12.1793 41.821H13.6121C13.8022 41.821 13.9844 41.7455 14.1187 41.6112C14.2531 41.4768 14.3286 41.2946 14.3286 41.1046C14.3286 40.9146 14.2531 40.7324 14.1187 40.598C13.9844 40.4637 13.8022 40.3882 13.6121 40.3882H12.1793Z" fill="#950504"/>
<path d="M3.58214 16.03C3.97781 16.03 4.29856 15.7093 4.29856 15.3136C4.29856 14.9179 3.97781 14.5972 3.58214 14.5972C3.18647 14.5972 2.86572 14.9179 2.86572 15.3136C2.86572 15.7093 3.18647 16.03 3.58214 16.03Z" fill="#950504"/>
<path d="M26.5074 16.03C26.9031 16.03 27.2239 15.7093 27.2239 15.3136C27.2239 14.9179 26.9031 14.5972 26.5074 14.5972C26.1118 14.5972 25.791 14.9179 25.791 15.3136C25.791 15.7093 26.1118 16.03 26.5074 16.03Z" fill="#950504"/>
<path d="M3.58214 46.1194C3.97781 46.1194 4.29856 45.7986 4.29856 45.4029C4.29856 45.0073 3.97781 44.6865 3.58214 44.6865C3.18647 44.6865 2.86572 45.0073 2.86572 45.4029C2.86572 45.7986 3.18647 46.1194 3.58214 46.1194Z" fill="#950504"/>
<path d="M57.3132 21.0449H56.377L55.0996 17.6381C54.8414 16.9566 54.3825 16.3696 53.7835 15.9545C53.1845 15.5395 52.4736 15.316 51.7449 15.3136H46.567V12.4479H54.4476C54.5417 12.4479 54.6348 12.4294 54.7218 12.3934C54.8087 12.3574 54.8877 12.3047 54.9542 12.2381C55.0207 12.1716 55.0735 12.0926 55.1095 12.0057C55.1455 11.9188 55.164 11.8256 55.164 11.7315V8.86583C55.164 8.77174 55.1455 8.67857 55.1095 8.59164C55.0735 8.50471 55.0207 8.42572 54.9542 8.35919C54.8877 8.29266 54.8087 8.23989 54.7218 8.2039C54.6348 8.1679 54.5417 8.14939 54.4476 8.14941H45.8506C44.9009 8.15053 43.9904 8.52828 43.3189 9.19982C42.6473 9.87135 42.2696 10.7818 42.2685 11.7315V15.3136H37.0905C36.3618 15.316 35.6509 15.5395 35.052 15.9546C34.453 16.3696 33.994 16.9566 33.7358 17.6381L32.4584 21.0449H31.5222C31.1423 21.0454 30.7781 21.1965 30.5095 21.4651C30.2409 21.7337 30.0898 22.0979 30.0894 22.4778V25.3434C30.0898 25.7233 30.2409 26.0875 30.5095 26.3561C30.7781 26.6247 31.1423 26.7758 31.5222 26.7763H32.3007L32.3708 27.5459C32.3872 27.7237 32.4693 27.8891 32.6012 28.0096C32.733 28.1301 32.9051 28.197 33.0838 28.1972C33.1054 28.1972 33.1271 28.1962 33.1495 28.1944C33.3388 28.1771 33.5134 28.0853 33.635 27.9393C33.7566 27.7933 33.8152 27.605 33.7981 27.4157L33.7398 26.7763H42.6882L39.5553 29.9092C39.4888 29.9757 39.4361 30.0547 39.4001 30.1416C39.3641 30.2285 39.3455 30.3216 39.3455 30.4157C39.3455 30.5098 39.364 30.6029 39.4 30.6898C39.436 30.7768 39.4888 30.8557 39.5553 30.9223C39.6218 30.9888 39.7008 31.0415 39.7877 31.0775C39.8746 31.1135 39.9678 31.1321 40.0619 31.1321C40.1559 31.1321 40.2491 31.1136 40.336 31.0776C40.4229 31.0416 40.5019 30.9888 40.5684 30.9223L44.7144 26.7763H52.718L42.9366 36.5574C42.8701 36.6239 42.8173 36.7029 42.7813 36.7898C42.7453 36.8767 42.7268 36.9699 42.7268 37.0639C42.7268 37.158 42.7453 37.2512 42.7813 37.3381C42.8173 37.425 42.8701 37.504 42.9366 37.5705C43.0031 37.637 43.0821 37.6898 43.169 37.7258C43.2559 37.7618 43.3491 37.7803 43.4431 37.7803C43.5372 37.7803 43.6304 37.7618 43.7173 37.7258C43.8042 37.6898 43.8831 37.637 43.9497 37.5705L54.7442 26.7763H55.098L53.5175 44.6867H42.9849C42.7949 44.6867 42.6126 44.7622 42.4783 44.8966C42.3439 45.0309 42.2685 45.2131 42.2685 45.4031C42.2685 45.5932 42.3439 45.7754 42.4783 45.9097C42.6126 46.0441 42.7949 46.1196 42.9849 46.1196H53.391L53.1323 49.0521C53.1172 49.2301 53.0355 49.396 52.9035 49.5164C52.7714 49.6369 52.5988 49.703 52.42 49.7017H43.5579C43.3679 49.7017 43.1856 49.7771 43.0513 49.9115C42.9169 50.0458 42.8415 50.2281 42.8415 50.4181C42.8415 50.6081 42.9169 50.7903 43.0513 50.9247C43.1856 51.059 43.3679 51.1345 43.5579 51.1345H52.42C52.9576 51.1377 53.4765 50.938 53.8731 50.5752C54.2698 50.2124 54.5149 49.7133 54.5595 49.1776L56.5363 26.7763H57.3132C57.6931 26.7758 58.0573 26.6247 58.3259 26.3561C58.5945 26.0875 58.7456 25.7233 58.7461 25.3434V22.4778C58.7456 22.0979 58.5945 21.7337 58.3259 21.4651C58.0573 21.1965 57.6931 21.0454 57.3132 21.0449ZM43.7013 11.7315C43.7019 11.1617 43.9286 10.6154 44.3315 10.2124C44.7344 9.80951 45.2807 9.58287 45.8506 9.58225H53.7311V11.0151H45.8506C45.7565 11.0151 45.6633 11.0336 45.5764 11.0696C45.4894 11.1056 45.4104 11.1583 45.3439 11.2249C45.2774 11.2914 45.2246 11.3704 45.1886 11.4573C45.1526 11.5442 45.1341 11.6374 45.1341 11.7315V15.3136H43.7013V11.7315ZM35.0777 18.1411C35.2325 17.7322 35.5078 17.3799 35.8673 17.1308C36.2267 16.8818 36.6533 16.7477 37.0905 16.7464H51.7449C52.1822 16.7477 52.6087 16.8818 52.9682 17.1308C53.3276 17.3799 53.6029 17.7322 53.7577 18.1411L54.8465 21.0449H33.9889L35.0777 18.1411ZM31.5222 25.3434V22.4778H55.8781L55.8804 22.4781L55.8823 22.4778H57.3132L57.314 25.3434H31.5222Z" fill="#950504"/>
<path d="M41.5521 39.6717C41.5486 36.6326 40.3398 33.7191 38.1909 31.5702C36.042 29.4212 33.1284 28.2125 30.0894 28.209H28.6565C25.6175 28.2125 22.7039 29.4212 20.555 31.5702C18.4061 33.7191 17.1973 36.6326 17.1938 39.6717C17.1945 39.9599 17.2821 40.2413 17.4452 40.4789C17.6084 40.7166 17.8394 40.8995 18.1081 41.0037C18.2678 41.5619 18.5265 42.0868 18.8719 42.5535C18.5699 42.8208 18.328 43.1492 18.1623 43.5169C17.9965 43.8846 17.9106 44.2833 17.9103 44.6866V45.403C17.9127 45.9204 18.0567 46.4273 18.3267 46.8686C18.0064 46.9376 17.7193 47.114 17.5132 47.3687C17.3071 47.6235 17.1944 47.941 17.1938 48.2687V48.9851C17.1954 50.3147 17.7243 51.5893 18.6644 52.5295C19.6045 53.4696 20.8792 53.9985 22.2088 54H36.5371C37.8667 53.9985 39.1414 53.4696 40.0815 52.5295C41.0217 51.5893 41.5505 50.3147 41.5521 48.9851V48.2687C41.5515 47.941 41.4388 47.6235 41.2327 47.3687C41.0266 47.114 40.7395 46.9376 40.4192 46.8686C40.6892 46.4273 40.8332 45.9204 40.8356 45.403V44.6866C40.8353 44.2835 40.7495 43.8851 40.5839 43.5175C40.4183 43.15 40.1767 42.8218 39.875 42.5544C40.2224 42.0871 40.483 41.5611 40.6445 41.0016C40.9116 40.8964 41.141 40.7133 41.3028 40.4762C41.4646 40.2391 41.5515 39.9588 41.5521 39.6717ZM39.4028 44.6866V45.403C39.4024 45.7829 39.2513 46.1471 38.9827 46.4157C38.714 46.6843 38.3498 46.8354 37.97 46.8359H20.7759C20.3961 46.8354 20.0319 46.6843 19.7632 46.4157C19.4946 46.1471 19.3435 45.7829 19.3431 45.403V44.6866C19.3439 44.4722 19.3931 44.2608 19.487 44.0681C19.5809 43.8754 19.7171 43.7063 19.8855 43.5736C20.805 44.2624 21.9148 44.6503 23.0632 44.6842C24.2115 44.7181 25.3423 44.3964 26.3009 43.7631C27.2181 44.3497 28.2842 44.6614 29.373 44.6614C30.4617 44.6614 31.5278 44.3497 32.445 43.7631C33.4039 44.3967 34.5352 44.7184 35.684 44.6841C36.8328 44.6499 37.9429 44.2613 38.8623 43.5717C39.0305 43.705 39.1664 43.8744 39.26 44.0674C39.3535 44.2604 39.4024 44.4721 39.4028 44.6866ZM33.7782 48.2687L32.2386 49.5004L30.699 48.2687H33.7782ZM38.2733 42.1834L38.2622 42.1937C37.5337 42.8535 36.5924 43.2293 35.6098 43.2526C34.6273 43.2759 33.6692 42.9452 32.9102 42.3208C32.7811 42.2111 32.6172 42.1508 32.4477 42.1504C32.2783 42.1501 32.1142 42.2099 31.9846 42.3191C31.2484 42.9234 30.3254 43.2538 29.3729 43.2538C28.4204 43.2538 27.4974 42.9234 26.7612 42.3191C26.6316 42.2099 26.4675 42.1501 26.2981 42.1504C26.1286 42.1508 25.9648 42.2111 25.8356 42.3208C25.106 42.9303 24.1837 43.2609 23.233 43.2538C22.4985 43.2691 21.7747 43.0752 21.1462 42.6946C20.5177 42.314 20.0104 41.7625 19.6836 41.1045H39.0656C38.8726 41.5113 38.6036 41.8774 38.2733 42.1834ZM28.6565 29.6418H30.0894C32.7486 29.6449 35.298 30.7026 37.1784 32.5828C39.0588 34.4631 40.1167 37.0125 40.1199 39.6717H18.6267C18.6297 37.0125 19.6873 34.4631 21.5677 32.5828C23.448 30.7025 25.9974 29.6448 28.6565 29.6418ZM40.1192 48.9851C40.1181 49.9348 39.7403 50.8453 39.0688 51.5168C38.3973 52.1883 37.4868 52.5661 36.5371 52.5672H22.2088C21.2591 52.5661 20.3486 52.1883 19.6771 51.5168C19.0056 50.8453 18.6278 49.9348 18.6267 48.9851V48.2687H28.4051L31.7909 50.9773C31.918 51.079 32.0759 51.1344 32.2387 51.1344C32.4014 51.1344 32.5593 51.079 32.6864 50.9773L36.0722 48.2687H40.1192V48.9851Z" fill="#950504"/>
<path d="M32.2384 38.239C32.6341 38.239 32.9548 37.9182 32.9548 37.5226C32.9548 37.1269 32.6341 36.8062 32.2384 36.8062C31.8427 36.8062 31.522 37.1269 31.522 37.5226C31.522 37.9182 31.8427 38.239 32.2384 38.239Z" fill="#950504"/>
<path d="M36.5372 38.239C36.9329 38.239 37.2536 37.9182 37.2536 37.5226C37.2536 37.1269 36.9329 36.8062 36.5372 36.8062C36.1416 36.8062 35.8208 37.1269 35.8208 37.5226C35.8208 37.9182 36.1416 38.239 36.5372 38.239Z" fill="#950504"/>
<path d="M34.3878 35.3733C34.7835 35.3733 35.1042 35.0525 35.1042 34.6568C35.1042 34.2612 34.7835 33.9404 34.3878 33.9404C33.9921 33.9404 33.6714 34.2612 33.6714 34.6568C33.6714 35.0525 33.9921 35.3733 34.3878 35.3733Z" fill="#950504"/>
</svg>
