<svg width="26" height="26" viewBox="0 0 26 26" fill="none" xmlns="http://www.w3.org/2000/svg">
<path d="M2.16667 6.49984C3.36328 6.49984 4.33333 5.52979 4.33333 4.33317C4.33333 3.13655 3.36328 2.1665 2.16667 2.1665C0.97005 2.1665 0 3.13655 0 4.33317C0 5.52979 0.97005 6.49984 2.16667 6.49984Z" fill="white"/>
<path d="M26 2.1665H8.66667V6.49984H26V2.1665Z" fill="white"/>
<path d="M26 10.8332H8.66667V15.1665H26V10.8332Z" fill="white"/>
<path d="M8.66667 19.4998H26V23.8332H8.66667V19.4998Z" fill="white"/>
<path d="M4.33333 12.9998C4.33333 14.1965 3.36328 15.1665 2.16667 15.1665C0.97005 15.1665 0 14.1965 0 12.9998C0 11.8032 0.97005 10.8332 2.16667 10.8332C3.36328 10.8332 4.33333 11.8032 4.33333 12.9998Z" fill="white"/>
<path d="M2.16667 23.8332C3.36328 23.8332 4.33333 22.8631 4.33333 21.6665C4.33333 20.4699 3.36328 19.4998 2.16667 19.4998C0.97005 19.4998 0 20.4699 0 21.6665C0 22.8631 0.97005 23.8332 2.16667 23.8332Z" fill="white"/>
</svg>
