<svg width="59" height="59" viewBox="0 0 59 59" fill="none" xmlns="http://www.w3.org/2000/svg">
<path d="M17.9043 53.4687H3.83333V9.21868H38.6667V27.73C38.6667 27.9745 38.7632 28.209 38.9352 28.3819C39.1071 28.5548 39.3402 28.6519 39.5833 28.6519C39.8265 28.6519 40.0596 28.5548 40.2315 28.3819C40.4034 28.209 40.5 27.9745 40.5 27.73V8.29681C40.5 8.05231 40.4034 7.81783 40.2315 7.64494C40.0596 7.47206 39.8265 7.37493 39.5833 7.37493H36.8333V0.921796C36.8334 0.783756 36.8025 0.647475 36.7432 0.523015C36.6838 0.398555 36.5974 0.289097 36.4903 0.202722C36.3833 0.116347 36.2583 0.0552629 36.1246 0.0239796C35.9909 -0.00730372 35.8519 -0.00798693 35.7179 0.0219804L2.71793 7.39699C2.51933 7.45191 2.34303 7.56845 2.21412 7.73001C2.08522 7.89158 2.01029 8.08992 2 8.29681V54.3906C2 54.6351 2.09658 54.8696 2.26849 55.0425C2.44039 55.2154 2.67355 55.3125 2.91667 55.3125H17.9043C18.1474 55.3125 18.3805 55.2154 18.5524 55.0425C18.7243 54.8696 18.8209 54.6351 18.8209 54.3906C18.8209 54.1461 18.7243 53.9116 18.5524 53.7388C18.3805 53.5659 18.1474 53.4687 17.9043 53.4687ZM35 7.37493H11.2668L35 2.07099V7.37493Z" fill="#EB8C34"/>
<path d="M35.9167 29.2052C36.1599 29.2052 36.393 29.108 36.5649 28.9352C36.7368 28.7623 36.8334 28.5278 36.8334 28.2833V16.5938C36.8334 16.3493 36.7368 16.1148 36.5649 15.9419C36.393 15.769 36.1599 15.6719 35.9167 15.6719C34.9446 15.6708 34.0126 15.2819 33.3253 14.5906C32.6379 13.8993 32.2512 12.962 32.2501 11.9844C32.2501 11.7399 32.1535 11.5054 31.9816 11.3325C31.8097 11.1596 31.5765 11.0625 31.3334 11.0625H11.1667C10.9236 11.0625 10.6905 11.1596 10.5186 11.3325C10.3467 11.5054 10.2501 11.7399 10.2501 11.9844C10.249 12.962 9.8623 13.8993 9.17491 14.5906C8.48752 15.2819 7.55553 15.6708 6.58341 15.6719C6.3403 15.6719 6.10714 15.769 5.93523 15.9419C5.76333 16.1148 5.66675 16.3493 5.66675 16.5938V46.0938C5.66675 46.3383 5.76333 46.5728 5.93523 46.7457C6.10714 46.9186 6.3403 47.0157 6.58341 47.0157C7.55553 47.0168 8.48752 47.4057 9.17491 48.097C9.8623 48.7883 10.249 49.7255 10.2501 50.7032C10.2501 50.9477 10.3467 51.1822 10.5186 51.355C10.6905 51.5279 10.9236 51.6251 11.1667 51.6251H20.3334C20.5765 51.6251 20.8097 51.5279 20.9816 51.355C21.1535 51.1822 21.2501 50.9477 21.2501 50.7032C21.2501 50.4587 21.1535 50.2242 20.9816 50.0513C20.8097 49.8784 20.5765 49.7813 20.3334 49.7813H12.0069C11.8147 48.6495 11.278 47.6057 10.4707 46.7938C9.66342 45.982 8.62545 45.4421 7.50008 45.2489V17.4387C8.62545 17.2454 9.66342 16.7056 10.4707 15.8937C11.278 15.0819 11.8147 14.038 12.0069 12.9063H30.4933C30.6854 14.038 31.2222 15.0819 32.0295 15.8937C32.8367 16.7056 33.8747 17.2454 35.0001 17.4387V28.2833C35.0001 28.5278 35.0967 28.7623 35.2686 28.9352C35.4405 29.108 35.6736 29.2052 35.9167 29.2052Z" fill="#EB8C34"/>
<path d="M54.2499 53.4688V50.7032C54.2438 47.1915 53.0661 43.7835 50.9055 41.0248C48.745 38.2661 45.7264 36.3163 42.3333 35.4876V34.1094C42.3333 33.1314 41.9469 32.1935 41.2593 31.5019C40.5717 30.8104 39.639 30.4219 38.6666 30.4219C37.6941 30.4219 36.7615 30.8104 36.0739 31.5019C35.3862 32.1935 34.9999 33.1314 34.9999 34.1094V35.4876C31.6067 36.3163 28.5882 38.2661 26.4276 41.0248C24.2671 43.7835 23.0894 47.1915 23.0833 50.7032V53.4688C22.3539 53.4688 21.6544 53.7602 21.1387 54.2788C20.623 54.7975 20.3333 55.5009 20.3333 56.2344C20.3333 56.9679 20.623 57.6713 21.1387 58.19C21.6544 58.7087 22.3539 59 23.0833 59H54.2499C54.9793 59 55.6787 58.7087 56.1945 58.19C56.7102 57.6713 56.9999 56.9679 56.9999 56.2344C56.9999 55.5009 56.7102 54.7975 56.1945 54.2788C55.6787 53.7602 54.9793 53.4688 54.2499 53.4688ZM36.8333 34.1094C36.8333 33.6204 37.0264 33.1514 37.3702 32.8056C37.714 32.4599 38.1804 32.2656 38.6666 32.2656C39.1528 32.2656 39.6191 32.4599 39.9629 32.8056C40.3068 33.1514 40.4999 33.6204 40.4999 34.1094V35.1496C39.2827 34.9918 38.0504 34.9918 36.8333 35.1496V34.1094ZM24.9166 51.625H45.9999C46.243 51.625 46.4762 51.5279 46.6481 51.355C46.82 51.1821 46.9166 50.9477 46.9166 50.7032C46.9166 50.4587 46.82 50.2242 46.6481 50.0513C46.4762 49.8784 46.243 49.7813 45.9999 49.7813H24.963C25.1915 46.2825 26.7345 43.0021 29.2793 40.6054C31.8241 38.2086 35.1801 36.875 38.6666 36.875C42.1531 36.875 45.509 38.2086 48.0538 40.6054C50.5986 43.0021 52.1417 46.2825 52.3701 49.7813H49.6666C49.4235 49.7813 49.1903 49.8784 49.0184 50.0513C48.8465 50.2242 48.7499 50.4587 48.7499 50.7032C48.7499 50.9477 48.8465 51.1821 49.0184 51.355C49.1903 51.5279 49.4235 51.625 49.6666 51.625H52.4166V53.4688H24.9166V51.625ZM54.2499 57.1563H23.0833C22.8401 57.1563 22.607 57.0592 22.4351 56.8863C22.2632 56.7134 22.1666 56.4789 22.1666 56.2344C22.1666 55.9899 22.2632 55.7554 22.4351 55.5825C22.607 55.4097 22.8401 55.3125 23.0833 55.3125H54.2499C54.493 55.3125 54.7262 55.4097 54.8981 55.5825C55.07 55.7554 55.1666 55.9899 55.1666 56.2344C55.1666 56.4789 55.07 56.7134 54.8981 56.8863C54.7262 57.0592 54.493 57.1563 54.2499 57.1563Z" fill="#EB8C34"/>
<path d="M23.0834 14.75C22.8403 14.75 22.6071 14.8471 22.4352 15.02C22.2633 15.1929 22.1667 15.4274 22.1667 15.6719V18.4375C22.1692 19.2528 22.4405 20.0442 22.9381 20.6878C23.4358 21.3314 24.1317 21.7909 24.9167 21.9941V26.7344C24.9167 26.9789 25.0133 27.2134 25.1852 27.3863C25.3571 27.5591 25.5903 27.6563 25.8334 27.6563C26.0765 27.6563 26.3097 27.5591 26.4816 27.3863C26.6535 27.2134 26.7501 26.9789 26.7501 26.7344V21.9941C27.5352 21.7909 28.231 21.3314 28.7287 20.6878C29.2263 20.0442 29.4976 19.2528 29.5001 18.4375V15.6719C29.5001 15.4274 29.4035 15.1929 29.2316 15.02C29.0597 14.8471 28.8265 14.75 28.5834 14.75C28.3403 14.75 28.1071 14.8471 27.9352 15.02C27.7633 15.1929 27.6667 15.4274 27.6667 15.6719V18.4375C27.6657 18.7597 27.5805 19.0759 27.4196 19.3545C27.2587 19.6331 27.0278 19.8643 26.7501 20.0248V15.6719C26.7501 15.4274 26.6535 15.1929 26.4816 15.02C26.3097 14.8471 26.0765 14.75 25.8334 14.75C25.5903 14.75 25.3571 14.8471 25.1852 15.02C25.0133 15.1929 24.9167 15.4274 24.9167 15.6719V20.0248C24.639 19.8643 24.4081 19.6331 24.2472 19.3545C24.0863 19.0759 24.0011 18.7597 24.0001 18.4375V15.6719C24.0001 15.4274 23.9035 15.1929 23.7316 15.02C23.5597 14.8471 23.3265 14.75 23.0834 14.75Z" fill="#EB8C34"/>
<path d="M16.6667 27.6563C16.9098 27.6563 17.1429 27.5591 17.3148 27.3863C17.4868 27.2134 17.5833 26.9789 17.5833 26.7344V22.916C18.3684 22.7127 19.0643 22.2533 19.5619 21.6097C20.0596 20.9661 20.3309 20.1747 20.3333 19.3594C20.3333 17.5242 18.8711 14.75 16.6667 14.75C14.4623 14.75 13 17.5242 13 19.3594C13.0024 20.1747 13.2737 20.9661 13.7714 21.6097C14.269 22.2533 14.9649 22.7127 15.75 22.916V26.7344C15.75 26.9789 15.8466 27.2134 16.0185 27.3863C16.1904 27.5591 16.4236 27.6563 16.6667 27.6563ZM14.8333 19.3594C14.8333 18.2169 15.7813 16.5938 16.6667 16.5938C17.552 16.5938 18.5 18.2169 18.5 19.3594C18.5 19.8484 18.3068 20.3173 17.963 20.6631C17.6192 21.0089 17.1529 21.2031 16.6667 21.2031C16.1804 21.2031 15.7141 21.0089 15.3703 20.6631C15.0265 20.3173 14.8333 19.8484 14.8333 19.3594Z" fill="#EB8C34"/>
<path d="M13.9167 30.4219H12.0834C11.8403 30.4219 11.6071 30.519 11.4352 30.6919C11.2633 30.8648 11.1667 31.0993 11.1667 31.3438C11.1667 31.5882 11.2633 31.8227 11.4352 31.9956C11.6071 32.1685 11.8403 32.2656 12.0834 32.2656H13.9167C14.1599 32.2656 14.393 32.1685 14.5649 31.9956C14.7368 31.8227 14.8334 31.5882 14.8334 31.3438C14.8334 31.0993 14.7368 30.8648 14.5649 30.6919C14.393 30.519 14.1599 30.4219 13.9167 30.4219Z" fill="#EB8C34"/>
<path d="M31.3334 31.3438C31.3334 31.0993 31.2368 30.8648 31.0649 30.6919C30.893 30.519 30.6599 30.4219 30.4167 30.4219H17.5834C17.3403 30.4219 17.1071 30.519 16.9352 30.6919C16.7633 30.8648 16.6667 31.0993 16.6667 31.3438C16.6667 31.5882 16.7633 31.8227 16.9352 31.9956C17.1071 32.1685 17.3403 32.2656 17.5834 32.2656H30.4167C30.6599 32.2656 30.893 32.1685 31.0649 31.9956C31.2368 31.8227 31.3334 31.5882 31.3334 31.3438Z" fill="#EB8C34"/>
<path d="M13.9167 35.0312H12.0834C11.8403 35.0312 11.6071 35.1284 11.4352 35.3013C11.2633 35.4741 11.1667 35.7086 11.1667 35.9531C11.1667 36.1976 11.2633 36.4321 11.4352 36.605C11.6071 36.7779 11.8403 36.875 12.0834 36.875H13.9167C14.1599 36.875 14.393 36.7779 14.5649 36.605C14.7368 36.4321 14.8334 36.1976 14.8334 35.9531C14.8334 35.7086 14.7368 35.4741 14.5649 35.3013C14.393 35.1284 14.1599 35.0312 13.9167 35.0312Z" fill="#EB8C34"/>
<path d="M27.6667 35.9531C27.6667 35.7086 27.5702 35.4741 27.3983 35.3013C27.2264 35.1284 26.9932 35.0312 26.7501 35.0312H17.5834C17.3403 35.0312 17.1071 35.1284 16.9352 35.3013C16.7633 35.4741 16.6667 35.7086 16.6667 35.9531C16.6667 36.1976 16.7633 36.4321 16.9352 36.605C17.1071 36.7779 17.3403 36.875 17.5834 36.875H26.7501C26.9932 36.875 27.2264 36.7779 27.3983 36.605C27.5702 36.4321 27.6667 36.1976 27.6667 35.9531Z" fill="#EB8C34"/>
<path d="M13.9167 39.6406H12.0834C11.8403 39.6406 11.6071 39.7378 11.4352 39.9106C11.2633 40.0835 11.1667 40.318 11.1667 40.5625C11.1667 40.807 11.2633 41.0415 11.4352 41.2144C11.6071 41.3873 11.8403 41.4844 12.0834 41.4844H13.9167C14.1599 41.4844 14.393 41.3873 14.5649 41.2144C14.7368 41.0415 14.8334 40.807 14.8334 40.5625C14.8334 40.318 14.7368 40.0835 14.5649 39.9106C14.393 39.7378 14.1599 39.6406 13.9167 39.6406Z" fill="#EB8C34"/>
<path d="M24.0001 40.5625C24.0001 40.318 23.9035 40.0835 23.7316 39.9106C23.5597 39.7378 23.3265 39.6406 23.0834 39.6406H17.5834C17.3403 39.6406 17.1071 39.7378 16.9352 39.9106C16.7633 40.0835 16.6667 40.318 16.6667 40.5625C16.6667 40.807 16.7633 41.0415 16.9352 41.2144C17.1071 41.3873 17.3403 41.4844 17.5834 41.4844H23.0834C23.3265 41.4844 23.5597 41.3873 23.7316 41.2144C23.9035 41.0415 24.0001 40.807 24.0001 40.5625Z" fill="#EB8C34"/>
<path d="M13.9167 44.25H12.0834C11.8403 44.25 11.6071 44.3471 11.4352 44.52C11.2633 44.6929 11.1667 44.9274 11.1667 45.1719C11.1667 45.4164 11.2633 45.6509 11.4352 45.8237C11.6071 45.9966 11.8403 46.0938 12.0834 46.0938H13.9167C14.1599 46.0938 14.393 45.9966 14.5649 45.8237C14.7368 45.6509 14.8334 45.4164 14.8334 45.1719C14.8334 44.9274 14.7368 44.6929 14.5649 44.52C14.393 44.3471 14.1599 44.25 13.9167 44.25Z" fill="#EB8C34"/>
<path d="M17.5834 44.25C17.3403 44.25 17.1071 44.3471 16.9352 44.52C16.7633 44.6929 16.6667 44.9274 16.6667 45.1719C16.6667 45.4164 16.7633 45.6509 16.9352 45.8237C17.1071 45.9966 17.3403 46.0938 17.5834 46.0938H19.4167C19.6599 46.0938 19.893 45.9966 20.0649 45.8237C20.2368 45.6509 20.3334 45.4164 20.3334 45.1719C20.3334 44.9274 20.2368 44.6929 20.0649 44.52C19.893 44.3471 19.6599 44.25 19.4167 44.25H17.5834Z" fill="#EB8C34"/>
<path d="M6.58341 12.9063C7.08968 12.9063 7.50008 12.4935 7.50008 11.9844C7.50008 11.4752 7.08968 11.0625 6.58341 11.0625C6.07715 11.0625 5.66675 11.4752 5.66675 11.9844C5.66675 12.4935 6.07715 12.9063 6.58341 12.9063Z" fill="#EB8C34"/>
<path d="M35.9167 12.9063C36.4229 12.9063 36.8333 12.4935 36.8333 11.9844C36.8333 11.4752 36.4229 11.0625 35.9167 11.0625C35.4104 11.0625 35 11.4752 35 11.9844C35 12.4935 35.4104 12.9063 35.9167 12.9063Z" fill="#EB8C34"/>
<path d="M6.58341 51.625C7.08968 51.625 7.50008 51.2123 7.50008 50.7031C7.50008 50.194 7.08968 49.7812 6.58341 49.7812C6.07715 49.7812 5.66675 50.194 5.66675 50.7031C5.66675 51.2123 6.07715 51.625 6.58341 51.625Z" fill="#EB8C34"/>
</svg>
