<svg width="59" height="59" viewBox="0 0 59 59" fill="none" xmlns="http://www.w3.org/2000/svg">
<path d="M46.4219 31.3001C48.0072 31.3001 49.5569 30.825 50.8751 29.935C52.1933 29.045 53.2207 27.7799 53.8273 26.2998C54.434 24.8198 54.5928 23.1911 54.2835 21.6199C53.9742 20.0486 53.2108 18.6053 52.0898 17.4725C50.9688 16.3397 49.5405 15.5683 47.9856 15.2557C46.4308 14.9432 44.8191 15.1036 43.3544 15.7167C41.8898 16.3297 40.6379 17.3679 39.7571 18.7C38.8764 20.032 38.4062 21.5981 38.4062 23.2001C38.4086 25.3476 39.2539 27.4065 40.7566 28.925C42.2593 30.4435 44.2967 31.2977 46.4219 31.3001ZM46.4219 16.9001C47.6549 16.9001 48.8603 17.2696 49.8855 17.9618C50.9107 18.6541 51.7098 19.638 52.1817 20.7892C52.6535 21.9404 52.777 23.2071 52.5364 24.4292C52.2959 25.6513 51.7021 26.7738 50.8302 27.6549C49.9583 28.5359 48.8475 29.136 47.6381 29.3791C46.4288 29.6221 45.1753 29.4974 44.0361 29.0205C42.8969 28.5437 41.9232 27.7362 41.2382 26.7002C40.5531 25.6642 40.1875 24.4461 40.1875 23.2001C40.1894 21.5298 40.8469 19.9285 42.0156 18.7475C43.1844 17.5664 44.769 16.9021 46.4219 16.9001Z" fill="#EB8C34"/>
<path d="M46.4219 24.1002C46.5388 24.1002 46.6547 24.077 46.7627 24.0317C46.8708 23.9865 46.969 23.9202 47.0517 23.8367C47.1344 23.7531 47.2 23.6539 47.2448 23.5446C47.2895 23.4354 47.3125 23.3184 47.3125 23.2002V19.6002C47.3125 19.3615 47.2187 19.1326 47.0516 18.9638C46.8846 18.795 46.6581 18.7002 46.4219 18.7002C46.1857 18.7002 45.9591 18.795 45.7921 18.9638C45.6251 19.1326 45.5313 19.3615 45.5313 19.6002V23.2002C45.5312 23.3184 45.5542 23.4354 45.599 23.5446C45.6437 23.6539 45.7093 23.7531 45.792 23.8367C45.8747 23.9202 45.9729 23.9865 46.081 24.0317C46.1891 24.077 46.3049 24.1002 46.4219 24.1002Z" fill="#EB8C34"/>
<path d="M7.23437 16.0002H10.4281L6.6047 19.8639C6.48015 19.9897 6.39532 20.1501 6.36095 20.3247C6.32658 20.4992 6.3442 20.6802 6.4116 20.8446C6.47901 21.0091 6.59315 21.1496 6.7396 21.2485C6.88605 21.3474 7.05824 21.4002 7.23437 21.4002H12.5781C12.8143 21.4002 13.0409 21.3054 13.2079 21.1366C13.3749 20.9678 13.4687 20.7389 13.4687 20.5002C13.4687 20.2615 13.3749 20.0326 13.2079 19.8638C13.0409 19.695 12.8143 19.6002 12.5781 19.6002H9.38439L13.2078 15.7365C13.3324 15.6106 13.4172 15.4503 13.4516 15.2757C13.486 15.1011 13.4683 14.9202 13.4009 14.7557C13.3335 14.5913 13.2194 14.4507 13.0729 14.3518C12.9265 14.253 12.7543 14.2002 12.5781 14.2002H7.23437C6.99817 14.2002 6.77163 14.295 6.60461 14.4638C6.43758 14.6326 6.34375 14.8615 6.34375 15.1002C6.34375 15.3389 6.43758 15.5678 6.60461 15.7366C6.77163 15.9054 6.99817 16.0002 7.23437 16.0002Z" fill="#EB8C34"/>
<path d="M1.89062 8.8H3.3031L1.26095 10.8637C1.1364 10.9896 1.05157 11.1499 1.0172 11.3245C0.982826 11.499 1.00045 11.68 1.06785 11.8444C1.13525 12.0089 1.2494 12.1494 1.39585 12.2483C1.5423 12.3472 1.71449 12.4 1.89062 12.4H5.45312C5.68933 12.4 5.91586 12.3052 6.08289 12.1364C6.24991 11.9676 6.34375 11.7387 6.34375 11.5C6.34375 11.2613 6.24991 11.0324 6.08289 10.8636C5.91586 10.6948 5.68933 10.6 5.45312 10.6H4.04065L6.08279 8.5363C6.20735 8.41045 6.29218 8.2501 6.32655 8.07553C6.36092 7.90096 6.34329 7.72001 6.27589 7.55556C6.20849 7.39112 6.09435 7.25056 5.9479 7.15167C5.80144 7.05278 5.62926 7 5.45312 7H1.89062C1.65442 7 1.42788 7.09482 1.26086 7.2636C1.09383 7.43239 1 7.66131 1 7.9C1 8.13869 1.09383 8.36761 1.26086 8.5364C1.42788 8.70518 1.65442 8.8 1.89062 8.8Z" fill="#EB8C34"/>
<path d="M55.3281 50.1999V49.2999C55.3258 48.504 55.0622 47.7313 54.5787 47.1029C54.0952 46.4746 53.419 46.0261 52.6562 45.8277V42.9999C52.6562 42.7422 52.6389 42.4849 52.6308 42.2273C52.6425 42.1856 52.651 42.143 52.6562 42.0999C52.6506 42.0396 52.6388 41.98 52.6208 41.9222C52.5452 40.1295 52.2748 38.3507 51.8143 36.6177C51.7837 36.5037 51.7313 36.3969 51.6599 36.3033C51.5884 36.2098 51.4995 36.1314 51.3981 36.0726C51.2967 36.0138 51.1848 35.9757 51.0689 35.9606C50.9529 35.9455 50.8352 35.9536 50.7223 35.9845C50.6095 36.0153 50.5038 36.0684 50.4112 36.1405C50.3186 36.2127 50.241 36.3026 50.1828 36.4051C50.1246 36.5075 50.087 36.6206 50.072 36.7377C50.0571 36.8549 50.0651 36.9739 50.0957 37.0879C50.4531 38.434 50.6873 39.8105 50.7954 41.1999H45.5312C45.295 41.1999 45.0685 41.2947 44.9015 41.4635C44.7344 41.6323 44.6406 41.8612 44.6406 42.0999C44.6406 42.3386 44.7344 42.5675 44.9015 42.7363C45.0685 42.9051 45.295 42.9999 45.5312 42.9999H50.875V45.6999H6.34375V42.9999H40.1875C40.4237 42.9999 40.6502 42.9051 40.8172 42.7363C40.9843 42.5675 41.0781 42.3386 41.0781 42.0999C41.0781 41.8612 40.9843 41.6323 40.8172 41.4635C40.6502 41.2947 40.4237 41.1999 40.1875 41.1999H6.42137C6.87469 35.5655 9.40791 30.3093 13.5182 26.4747C17.6284 22.6401 23.0153 20.5074 28.6094 20.4999C30.7708 20.4982 32.92 20.8286 34.9832 21.4799C34.6908 23.4445 34.8984 25.452 35.5865 27.313C36.2747 29.174 37.4207 30.8271 38.9163 32.1165C40.412 33.4059 42.2081 34.289 44.1351 34.6825C46.0622 35.076 48.0567 34.9669 49.9304 34.3655C51.8042 33.7641 53.4954 32.6902 54.8446 31.2452C56.1938 29.8002 57.1565 28.0317 57.6418 26.1065C58.1272 24.1813 58.1191 22.1629 57.6185 20.2417C57.1179 18.3205 56.1412 16.5598 54.7806 15.1258L55.3281 14.5726L55.589 14.8363C55.6715 14.9207 55.7698 14.9878 55.878 15.0337C55.9863 15.0796 56.1025 15.1035 56.2199 15.1038C56.3373 15.1042 56.4536 15.0811 56.5622 15.0359C56.6707 14.9906 56.7694 14.9241 56.8524 14.8402C56.9354 14.7563 57.0012 14.6567 57.046 14.547C57.0907 14.4373 57.1136 14.3197 57.1132 14.2011C57.1128 14.0824 57.0892 13.965 57.0438 13.8556C56.9983 13.7462 56.9319 13.647 56.8484 13.5636L55.0671 11.7636C54.8996 11.5974 54.6739 11.5047 54.4391 11.5058C54.2043 11.5068 53.9795 11.6016 53.8135 11.7693C53.6474 11.9371 53.5537 12.1643 53.5526 12.4016C53.5516 12.6388 53.6433 12.8669 53.8078 13.0362L54.0687 13.2999L53.4509 13.9243C52.1613 12.9222 50.6763 12.2074 49.0937 11.827V9.6999C49.3299 9.6999 49.5565 9.60508 49.7235 9.4363C49.8905 9.26752 49.9843 9.0386 49.9843 8.7999C49.9843 8.56121 49.8905 8.33229 49.7235 8.16351C49.5565 7.99472 49.3299 7.8999 49.0937 7.8999H43.75C43.5138 7.8999 43.2872 7.99472 43.1202 8.16351C42.9532 8.33229 42.8593 8.56121 42.8593 8.7999C42.8593 9.0386 42.9532 9.26752 43.1202 9.4363C43.2872 9.60508 43.5138 9.6999 43.75 9.6999V11.827C41.7969 12.2979 39.998 13.2725 38.5289 14.6555C37.0597 16.0386 35.9705 17.7829 35.3674 19.7183C34.6098 19.4837 33.8404 19.2899 33.0625 19.1379V17.7999C33.0625 16.6064 32.5933 15.4618 31.7582 14.6179C30.9231 13.774 29.7904 13.2999 28.6094 13.2999C27.4283 13.2999 26.2956 13.774 25.4605 14.6179C24.6254 15.4618 24.1562 16.6064 24.1562 17.7999V19.1244C18.8244 20.1477 13.9909 22.9606 10.4392 27.1074C6.88744 31.2541 4.82576 36.4914 4.58833 41.9704C4.57225 42.0065 4.56345 42.0454 4.56246 42.0849C4.56146 42.1244 4.56827 42.1637 4.58251 42.2005C4.57397 42.4665 4.5625 42.7318 4.5625 42.9999V45.8277C3.79969 46.0261 3.12356 46.4746 2.64004 47.1029C2.15653 47.7313 1.89296 48.504 1.89062 49.2999V50.1999C1.65442 50.1999 1.42788 50.2947 1.26086 50.4635C1.09383 50.6323 1 50.8612 1 51.0999C1 51.3386 1.09383 51.5675 1.26086 51.7363C1.42788 51.9051 1.65442 51.9999 1.89062 51.9999H55.3281C55.5643 51.9999 55.7908 51.9051 55.9579 51.7363C56.1249 51.5675 56.2187 51.3386 56.2187 51.0999C56.2187 50.8612 56.1249 50.6323 55.9579 50.4635C55.7908 50.2947 55.5643 50.1999 55.3281 50.1999ZM45.5312 9.6999H47.3125V11.5455C47.0176 11.5226 46.7224 11.4999 46.4218 11.4999C46.1212 11.4999 45.8261 11.5226 45.5312 11.5455V9.6999ZM46.4218 13.2999C48.3595 13.2999 50.2536 13.8805 51.8647 14.9684C53.4758 16.0562 54.7315 17.6023 55.473 19.4113C56.2145 21.2203 56.4085 23.2109 56.0305 25.1313C55.6525 27.0517 54.7194 28.8157 53.3493 30.2003C51.9792 31.5848 50.2335 32.5277 48.3331 32.9097C46.4327 33.2917 44.4629 33.0956 42.6727 32.3463C40.8826 31.597 39.3525 30.3281 38.276 28.7C37.1996 27.072 36.625 25.1579 36.625 23.1999C36.6279 20.5752 37.661 18.0588 39.4977 16.2028C41.3343 14.3469 43.8245 13.3029 46.4218 13.2999ZM25.9375 17.7999C25.9375 17.0838 26.219 16.3971 26.7201 15.8907C27.2211 15.3844 27.9007 15.0999 28.6094 15.0999C29.318 15.0999 29.9976 15.3844 30.4987 15.8907C30.9997 16.3971 31.2812 17.0838 31.2812 17.7999V18.8679C29.5069 18.6487 27.713 18.6439 25.9375 18.8535V17.7999ZM3.67187 49.2999C3.67241 48.8227 3.86025 48.3652 4.19418 48.0277C4.52812 47.6903 4.98087 47.5005 5.45312 47.4999H51.7656C52.2378 47.5005 52.6906 47.6903 53.0245 48.0277C53.3585 48.3652 53.5463 48.8227 53.5468 49.2999V50.1999H3.67187V49.2999Z" fill="#EB8C34"/>
</svg>
