<svg width="59" height="59" viewBox="0 0 59 59" fill="none" xmlns="http://www.w3.org/2000/svg">
<path d="M58.4908 5.62894L58.2028 5.48445C57.255 5.01132 56.4211 4.33848 55.7583 3.51223C55.0954 2.68598 54.6195 1.72594 54.3632 0.698162C54.3132 0.498732 54.1981 0.321702 54.0361 0.195205C53.874 0.0687077 53.6743 0 53.4687 0C53.2632 0 53.0635 0.0687077 52.9014 0.195205C52.7394 0.321702 52.6242 0.498732 52.5743 0.698162C52.3179 1.72603 51.8419 2.68616 51.179 3.51248C50.5161 4.33881 49.682 5.01171 48.7342 5.4849L48.4466 5.62894C48.2936 5.70553 48.165 5.8232 48.075 5.96876C47.9851 6.11432 47.9375 6.28204 47.9375 6.45314C47.9375 6.62423 47.9851 6.79195 48.075 6.93751C48.165 7.08308 48.2936 7.20074 48.4466 7.27733L48.7347 7.42182C49.6824 7.89495 50.5164 8.56779 51.1792 9.39404C51.842 10.2203 52.318 11.1803 52.5743 12.2081C52.6242 12.4075 52.7393 12.5846 52.9014 12.7111C53.0634 12.8376 53.2631 12.9063 53.4687 12.9063C53.6743 12.9063 53.874 12.8376 54.036 12.7111C54.1981 12.5846 54.3132 12.4075 54.3631 12.2081C54.6195 11.1802 55.0955 10.2201 55.7585 9.39379C56.4214 8.56746 57.2554 7.89456 58.2032 7.42137L58.4908 7.27733C58.6438 7.20074 58.7725 7.08308 58.8624 6.93751C58.9523 6.79195 58.9999 6.62423 58.9999 6.45314C58.9999 6.28204 58.9523 6.11432 58.8624 5.96876C58.7725 5.8232 58.6438 5.70553 58.4908 5.62894ZM53.4687 9.50321C52.7903 8.2903 51.8453 7.24735 50.7049 6.4531C51.8454 5.65897 52.7905 4.61599 53.4687 3.40299C54.1471 4.6159 55.0921 5.65885 56.2325 6.4531C55.092 7.24722 54.1469 8.2902 53.4687 9.50321Z" fill="#98A21E"/>
<path d="M6.42565 16.8175C6.68204 15.7896 7.15807 14.8295 7.82098 14.0032C8.48389 13.1768 9.31794 12.5039 10.2658 12.0307L10.5534 11.8867C10.7064 11.8101 10.835 11.6925 10.9249 11.5469C11.0149 11.4013 11.0625 11.2336 11.0625 11.0625C11.0625 10.8914 11.0149 10.7237 10.9249 10.5781C10.835 10.4326 10.7064 10.3149 10.5534 10.2383L10.2653 10.0938C9.31757 9.62069 8.4836 8.94785 7.82078 8.12161C7.15795 7.29536 6.682 6.33531 6.42568 5.30754C6.37577 5.10811 6.26064 4.93108 6.09859 4.80458C5.93653 4.67808 5.73685 4.60938 5.53127 4.60938C5.32569 4.60938 5.126 4.67808 4.96395 4.80458C4.80189 4.93108 4.68676 5.10811 4.63685 5.30754C4.38046 6.33541 3.90443 7.29554 3.24152 8.12186C2.57861 8.94819 1.74455 9.62109 0.796728 10.0943L0.509103 10.2383C0.356108 10.3149 0.227452 10.4326 0.137538 10.5781C0.0476231 10.7237 0 10.8914 0 11.0625C0 11.2336 0.0476231 11.4013 0.137538 11.5469C0.227452 11.6925 0.356108 11.8101 0.509103 11.8867L0.797189 12.0312C1.74491 12.5043 2.57887 13.1772 3.2417 14.0034C3.90453 14.8297 4.38048 15.7897 4.6368 16.8175C4.68671 17.0169 4.80184 17.1939 4.96389 17.3204C5.12595 17.4469 5.32563 17.5156 5.53121 17.5156C5.73679 17.5156 5.93648 17.4469 6.09853 17.3204C6.26059 17.1939 6.37574 17.0169 6.42565 16.8175ZM2.76746 11.0625C3.90795 10.2684 4.85302 9.22541 5.53124 8.0124C6.2096 9.22531 7.15464 10.2683 8.29502 11.0625C7.15453 11.8566 6.20946 12.8996 5.53124 14.1126C4.85288 12.8997 3.90784 11.8568 2.76746 11.0625Z" fill="#98A21E"/>
<path d="M50.7031 27.6563V26.7344C50.6964 21.9064 49.0447 17.2249 46.0205 13.4615C42.9962 9.69816 38.7799 7.07762 34.0665 6.03191C34.09 5.86594 34.1043 5.6988 34.1094 5.53125C34.1094 4.30877 33.6238 3.13636 32.7593 2.27193C31.8949 1.4075 30.7225 0.921875 29.5 0.921875C28.2775 0.921875 27.1051 1.4075 26.2407 2.27193C25.3763 3.13636 24.8906 4.30877 24.8906 5.53125C24.8957 5.6988 24.91 5.86594 24.9335 6.03191C20.2202 7.07762 16.0038 9.69816 12.9796 13.4615C9.95529 17.2249 8.30364 21.9064 8.29688 26.7344V27.6563C7.56363 27.6571 6.86065 27.9487 6.34217 28.4672C5.82369 28.9857 5.53205 29.6886 5.53125 30.4219V31.3438C5.53205 32.077 5.82369 32.78 6.34217 33.2985C6.86065 33.817 7.56363 34.1086 8.29688 34.1094H14.0374C14.0356 34.2319 14.0457 34.3543 14.0676 34.4749L15.5594 41.9341C14.5706 42.5558 13.7356 43.3935 13.1169 44.3842C12.3773 45.5825 11.9852 46.9628 11.9844 48.371V48.6411L10.8846 50.8338L10.3216 50.7212C10.1879 50.6944 10.0499 50.6976 9.9175 50.7306C9.78516 50.7637 9.66178 50.8256 9.55628 50.9121C9.45078 50.9986 9.36578 51.1073 9.30742 51.2306C9.24905 51.3539 9.21876 51.4886 9.21875 51.625V58.0782C9.21875 58.3226 9.31588 58.5571 9.48876 58.73C9.66165 58.9029 9.89613 59 10.1406 59H28.5781C28.8226 59 29.0571 58.9029 29.23 58.73C29.4029 58.5571 29.5 58.3226 29.5 58.0782V55.3125C29.4985 55.1889 29.4718 55.0669 29.4216 54.954C29.3713 54.8411 29.2986 54.7396 29.2078 54.6557L37.4174 48.6829C37.5069 48.6068 37.5872 48.5206 37.6568 48.4259L46.6047 34.1094H50.7031C51.4364 34.1086 52.1394 33.817 52.6578 33.2985C53.1763 32.78 53.468 32.077 53.4688 31.3438V30.4219C53.468 29.6886 53.1763 28.9857 52.6578 28.4672C52.1394 27.9487 51.4364 27.6571 50.7031 27.6563ZM26.7344 5.53125C26.7344 4.79776 27.0258 4.09431 27.5444 3.57566C28.0631 3.057 28.7665 2.76563 29.5 2.76563C30.2335 2.76563 30.9369 3.057 31.4556 3.57566C31.9743 4.09431 32.2656 4.79776 32.2656 5.53125C32.2656 5.59427 32.2542 5.65386 32.2501 5.71553C30.4249 5.46983 28.5751 5.46983 26.7499 5.71553C26.7459 5.65386 26.7344 5.59427 26.7344 5.53125ZM10.1406 26.7344C10.1406 26.4232 10.1728 26.1201 10.1873 25.8125H39.6406C39.8851 25.8125 40.1196 25.7154 40.2925 25.5425C40.4654 25.3696 40.5625 25.1351 40.5625 24.8906C40.5625 24.6461 40.4654 24.4117 40.2925 24.2388C40.1196 24.0659 39.8851 23.9688 39.6406 23.9688H10.3615C11.0209 19.3628 13.3192 15.1491 16.8347 12.1009C20.3502 9.05283 24.8471 7.37479 29.5 7.37479C34.1529 7.37479 38.6498 9.05283 42.1653 12.1009C45.6808 15.1491 47.9792 19.3628 48.6385 23.9688H43.3281C43.0836 23.9688 42.8492 24.0659 42.6763 24.2388C42.5034 24.4117 42.4063 24.6461 42.4063 24.8906C42.4063 25.1351 42.5034 25.3696 42.6763 25.5425C42.8492 25.7154 43.0836 25.8125 43.3281 25.8125H48.8127C48.8273 26.1201 48.8594 26.4232 48.8594 26.7344V27.6563H10.1406V26.7344ZM13.7304 49.2726C13.7947 49.1444 13.8282 49.0029 13.8281 48.8594V48.371C13.8288 47.3062 14.125 46.2624 14.6838 45.356C15.2518 44.4483 16.0565 43.7126 17.0115 43.2282C17.1909 43.137 17.3355 42.9896 17.4232 42.8085C17.511 42.6275 17.5371 42.4226 17.4976 42.2253L15.8749 34.1094H17.4233C18.2756 34.1096 19.1015 34.4053 19.7603 34.946C20.4191 35.4867 20.8701 36.239 21.0366 37.0749L22.0062 41.903C22.1454 42.5662 22.5183 43.1572 23.0568 43.5685L25.686 45.5356C26.1655 45.8985 26.7506 46.0945 27.352 46.0938H30.0807C30.6385 46.0932 31.1831 45.9238 31.6428 45.6078C32.1024 45.2918 32.4557 44.844 32.6559 44.3234L35.9842 35.6745C36.162 35.2153 36.474 34.8204 36.8796 34.5412C37.2852 34.262 37.7655 34.1116 38.2578 34.1094H39.3817L36.0617 47.3895L26.9192 54.0407L12.7594 51.2087L13.7304 49.2726ZM21.5344 34.1094H34.757C34.5559 34.3893 34.3902 34.6929 34.2633 35.0133L30.9328 43.6671C30.8664 43.8391 30.7494 43.9869 30.5973 44.0909C30.4452 44.195 30.265 44.2505 30.0807 44.25H27.3519C27.1519 44.2518 26.957 44.1867 26.7983 44.065L24.1713 42.0997C23.9882 41.9596 23.861 41.7589 23.8125 41.5335L22.8452 36.7157C22.6521 35.7443 22.199 34.8436 21.5344 34.1094ZM27.6563 57.1563H11.0625V52.7495L27.6563 56.0683V57.1563ZM39.1837 42.5042L41.2824 34.1094H44.4305L39.1837 42.5042ZM51.625 31.3438C51.6247 31.5882 51.5275 31.8225 51.3546 31.9953C51.1818 32.1681 50.9475 32.2653 50.7031 32.2656H8.29688C8.05248 32.2653 7.81818 32.1681 7.64536 31.9953C7.47255 31.8225 7.37532 31.5882 7.375 31.3438V30.4219C7.37532 30.1775 7.47255 29.9432 7.64536 29.7704C7.81818 29.5976 8.05248 29.5003 8.29688 29.5H50.7031C50.9475 29.5003 51.1818 29.5976 51.3546 29.7704C51.5275 29.9432 51.6247 30.1775 51.625 30.4219V31.3438Z" fill="#98A21E"/>
</svg>
